<svg width="32" height="32" viewBox="0 0 32 32" fill="none" xmlns="http://www.w3.org/2000/svg">
<path d="M23.4399 13.2855C23.3567 13.4826 23.1684 13.6111 22.9583 13.6133C22.9561 13.6133 22.9561 13.6133 22.9561 13.6133H16.6952L11.2618 19.1112H9.78635L16.1129 12.7096C16.2114 12.6121 16.3449 12.5567 16.4785 12.5567H21.6973L16.2618 7.05661H4.78422L10.3687 12.7096C10.5722 12.9156 10.5722 13.2523 10.3708 13.4583L4.78422 19.1112H9.78416C9.57401 19.1112 9.38574 19.2397 9.30256 19.4391C9.22156 19.6362 9.26753 19.8622 9.41639 20.0128L9.56744 20.1656H3.5211C3.31094 20.1656 3.12049 20.0372 3.03949 19.8378C2.9585 19.6384 3.00447 19.4125 3.15552 19.2619L9.26315 13.0817L3.15552 6.90155C3.00447 6.75314 2.9585 6.5272 3.03949 6.32784C3.12268 6.12848 3.31094 6 3.5211 6H16.4763C16.612 6 16.7456 6.05538 16.8441 6.15284L23.175 12.5567L23.326 12.7096C23.4749 12.8646 23.5209 13.0884 23.4399 13.2855Z" fill="#00AD8C"/>
<path d="M29.7053 26.3944C29.6221 26.5938 29.4317 26.7223 29.2215 26.7223H16.262C16.1262 26.7223 15.9927 26.6669 15.8964 26.5694L9.56984 20.1678L9.41879 20.0149C9.26993 19.8643 9.22396 19.6384 9.30495 19.4412C9.38814 19.2418 9.5764 19.1134 9.78656 19.1134H16.0474L21.4808 13.6132H22.9563C22.9585 13.6132 22.9585 13.6132 22.9585 13.6132L16.6319 20.0149C16.5268 20.1168 16.3977 20.1678 16.262 20.1678H11.0453L16.4809 25.6679H27.9606L22.374 20.0149C22.2755 19.9152 22.2229 19.7823 22.2229 19.6406C22.2229 19.4988 22.2777 19.3659 22.374 19.2662L27.9606 13.6132H22.9585C23.1686 13.611 23.3569 13.4826 23.4401 13.2854C23.5189 13.0883 23.4751 12.8645 23.3262 12.7095L23.1752 12.5566H29.2193C29.4295 12.5566 29.62 12.6851 29.7031 12.8823C29.7841 13.0816 29.7382 13.3076 29.5893 13.4604L23.4817 19.6406L29.5893 25.8207C29.7382 25.9714 29.7841 26.1973 29.7053 26.3944Z" fill="#021B51"/>
</svg>
