<svg width="200" height="24" viewBox="0 0 200 24" fill="none" xmlns="http://www.w3.org/2000/svg">
<path d="M43.5732 5.62207C45.5559 5.62207 46.7754 6.4302 47.1253 6.69188L48.4538 4.28802C47.7566 3.76467 46.0781 2.80261 43.4008 2.80261C38.4999 2.80261 35.2546 6.23266 35.2546 10.6915C35.2546 15.1272 38.4796 18.5598 43.4008 18.5598C46.1466 18.5598 47.7566 17.6208 48.4538 17.0949L47.1455 14.7141C46.7526 14.9758 45.5559 15.7403 43.5732 15.7403C40.3938 15.7403 38.3453 13.729 38.3453 10.6709C38.3453 7.61032 40.4141 5.62207 43.5732 5.62207Z" fill="#00AD8C"/>
<path d="M56.5798 9.2741C55.8395 8.59681 54.7924 8.11707 53.4638 8.11707C50.6978 8.11707 48.5833 10.367 48.5833 13.3404C48.5833 16.3138 50.6318 18.5637 53.3979 18.5637C54.8786 18.5637 55.9688 17.9069 56.7091 16.9911L56.8181 18.3687H59.3459V8.31204H56.7091L56.5798 9.2741ZM54.0292 15.9597C52.5689 15.9597 51.4584 14.8232 51.4584 13.3378C51.4584 11.8293 52.5689 10.7159 54.0292 10.7159C55.5986 10.7159 56.6001 11.8088 56.6001 13.3378C56.6229 14.8463 55.5986 15.9597 54.0292 15.9597Z" fill="#00AD8C"/>
<path d="M65.116 10.4106C66.2265 10.4106 67.2939 10.8031 68.1864 11.3727L69.3197 9.25357C68.4272 8.64042 66.9009 8.11707 65.1794 8.11707C62.6516 8.11707 60.9961 9.36389 60.9961 11.2854C60.9961 13.2737 62.8925 13.9946 64.5912 14.4102C65.9197 14.7155 66.3989 14.9566 66.3989 15.48C66.3989 16.0033 65.9628 16.2676 65.1363 16.2676C63.7647 16.2676 62.4995 15.7442 61.7389 15.1747L60.5625 17.2938C61.6071 18.0147 63.1106 18.5611 64.8549 18.5611C67.7731 18.5611 69.3197 17.2271 69.3197 15.3055C69.3197 13.1865 67.5982 12.5733 65.9654 12.1808C64.4619 11.8319 63.9396 11.6574 63.9396 11.1546C63.9396 10.6492 64.3985 10.4106 65.116 10.4106Z" fill="#00AD8C"/>
<path d="M82.3237 18.5637C81.6746 18.5637 81.1346 18.0968 81.018 17.4811C81.018 17.476 81.0154 17.4708 81.0154 17.4657C81.0104 17.4426 81.0078 17.4195 81.0053 17.3964C81.0028 17.3605 81.0002 17.3272 80.9977 17.3092V17.1117C80.9977 17.1117 80.9977 17.1117 80.9977 17.1091V12.8145C80.9977 9.99503 79.1469 8.1171 76.4873 8.1171C75.179 8.1171 74.2206 8.57632 73.6122 9.20999V2.76038H70.7573V18.3636H73.6122V13.1198C73.6122 11.7857 74.4843 10.6928 75.9219 10.6928C77.2301 10.6928 78.1429 11.6985 78.1429 13.207V17.2553H78.1454C78.1657 19.5566 80.0292 21.4165 82.3288 21.4165C82.3313 21.4165 82.3338 21.4165 82.3364 21.4165V18.5637C82.3313 18.5637 82.3262 18.5637 82.3237 18.5637Z" fill="#00AD8C"/>
<path d="M95.0692 8.1145C92.0622 8.1145 89.646 10.3644 89.646 13.3378C89.646 16.3112 92.0647 18.5611 95.0692 18.5611C98.0761 18.5611 100.492 16.3112 100.492 13.3378C100.492 10.3644 98.0761 8.1145 95.0692 8.1145ZM95.0692 15.9597C93.6316 15.9597 92.5211 14.8027 92.5211 13.3378C92.5211 11.896 93.6316 10.7159 95.0692 10.7159C96.5295 10.7159 97.6172 11.896 97.6172 13.3378C97.6197 14.8027 96.5295 15.9597 95.0692 15.9597Z" fill="#021B51"/>
<path d="M107.64 8.1145C105.918 8.1145 104.676 9.05347 104.328 10.2772L104.219 8.30948H101.844V18.361H104.699V13.3173C104.699 11.896 105.68 10.8467 107.269 10.8467C107.726 10.8467 107.989 10.934 108.271 11.0443L108.512 8.20429C108.248 8.13759 107.944 8.1145 107.64 8.1145Z" fill="#021B51"/>
<path d="M114.328 10.7159C115.372 10.7159 116.07 11.0879 116.528 11.3932L117.682 9.23048C117.094 8.81488 115.983 8.11707 114.001 8.11707C110.864 8.11707 108.489 10.4106 108.489 13.3404C108.489 16.2907 110.799 18.5637 114.001 18.5637C115.983 18.5637 117.051 17.8197 117.662 17.4272L116.528 15.285C116.072 15.5903 115.395 15.9623 114.285 15.9623C112.563 15.9623 111.41 14.8694 111.41 13.3404C111.41 11.8114 112.583 10.7159 114.328 10.7159Z" fill="#021B51"/>
<path d="M128.29 13.3609C128.29 10.3439 126.33 8.11707 123.301 8.11707C120.23 8.11707 118.073 10.4106 118.073 13.3404C118.073 16.2907 120.403 18.5637 123.585 18.5637C125.872 18.5637 127.114 17.7325 127.725 17.186L126.549 15.1311C126.112 15.48 125.349 16.1573 123.891 16.1573C122.322 16.1573 121.212 15.2824 120.884 14.1254H128.247C128.247 14.1254 128.29 13.7303 128.29 13.3609ZM120.905 12.2885C121.232 11.0417 122.167 10.3875 123.41 10.3875C124.543 10.3875 125.435 11.152 125.567 12.2885H120.905Z" fill="#021B51"/>
<path d="M86.5097 7.2859C86.5097 5.77739 87.4681 5.18733 88.4493 5.18733C89.1237 5.18733 89.4736 5.4054 89.6688 5.51572L90.759 3.37354C90.2798 3.04516 89.4508 2.58594 88.1222 2.58594C85.2902 2.58594 83.6574 4.33303 83.6574 7.13197V8.31209H82.2681V10.7159H83.6574V17.2374H83.6549C83.6498 17.966 83.0642 18.556 82.3391 18.5637V21.414C84.6386 21.4089 86.5047 19.5412 86.5148 17.2348H86.5123V10.7159H89.5192V8.31209H86.5123V7.2859H86.5097Z" fill="#021B51"/>
<path d="M23.6729 8.43786C23.5765 8.66619 23.3585 8.81499 23.1151 8.81755C23.1126 8.81755 23.1126 8.81755 23.1126 8.81755H15.8614L9.5686 15.1851H7.85976L15.187 7.77084C15.3011 7.65796 15.4557 7.59382 15.6104 7.59382H21.6547L15.3594 1.22373H2.06643L8.53417 7.77084C8.76996 8.00943 8.76996 8.39938 8.53671 8.63797L2.06643 15.1851H7.85723C7.61383 15.1851 7.39579 15.3339 7.29944 15.5648C7.20563 15.7931 7.25888 16.0548 7.43128 16.2292L7.60622 16.4062H0.603523C0.360128 16.4062 0.13955 16.2574 0.0457413 16.0265C-0.0480675 15.7957 0.00517538 15.534 0.180116 15.3595L7.25381 8.20184L0.180116 1.04415C0.00517538 0.872263 -0.0480675 0.610584 0.0457413 0.379691C0.142086 0.148798 0.360128 0 0.603523 0H15.6079C15.7651 0 15.9197 0.064137 16.0338 0.177018L23.3661 7.59382L23.541 7.77084C23.7134 7.95042 23.7667 8.20953 23.6729 8.43786Z" fill="#00AD8C"/>
<path d="M30.9291 23.6203C30.8327 23.8512 30.6121 24 30.3688 24H15.3593C15.2022 24 15.0475 23.9359 14.9359 23.823L7.60872 16.4087L7.43377 16.2317C7.26137 16.0573 7.20813 15.7956 7.30193 15.5673C7.39828 15.3364 7.61632 15.1876 7.85972 15.1876H15.1109L21.4037 8.81748H23.1125C23.1151 8.81748 23.1151 8.81748 23.1151 8.81748L15.7878 16.2317C15.6661 16.3497 15.5165 16.4087 15.3593 16.4087H9.31756L15.6129 22.7788H28.9084L22.4381 16.2317C22.324 16.1163 22.2632 15.9623 22.2632 15.7982C22.2632 15.634 22.3266 15.48 22.4381 15.3646L28.9084 8.81748H23.1151C23.3584 8.81492 23.5765 8.66612 23.6728 8.43779C23.7641 8.20946 23.7134 7.95035 23.541 7.77077L23.3661 7.59375H30.3662C30.6096 7.59375 30.8302 7.74255 30.9265 7.97088C31.0203 8.20177 30.9671 8.46345 30.7947 8.64047L23.721 15.7982L30.7947 22.9558C30.9671 23.1303 31.0203 23.392 30.9291 23.6203Z" fill="#021B51"/>
<path d="M139.09 14.4112V7.73707H141.283C141.804 7.73707 142.233 7.82288 142.57 7.9945C142.907 8.16612 143.155 8.39813 143.314 8.69052C143.479 8.98291 143.562 9.31343 143.562 9.6821C143.562 10.0444 143.482 10.3718 143.323 10.6641C143.164 10.9565 142.917 11.1917 142.58 11.3697C142.243 11.5413 141.811 11.6271 141.283 11.6271H139.891V14.4112H139.09ZM139.891 10.9502H141.264C141.798 10.9502 142.176 10.8389 142.399 10.6165C142.627 10.3876 142.742 10.0762 142.742 9.6821C142.742 9.28165 142.627 8.97019 142.399 8.74772C142.176 8.5189 141.798 8.40448 141.264 8.40448H139.891V10.9502Z" fill="#021B51"/>
<path d="M146.411 14.5256C145.959 14.5256 145.559 14.4239 145.209 14.2205C144.86 14.0107 144.583 13.7215 144.38 13.3528C144.183 12.9842 144.084 12.5488 144.084 12.0466C144.084 11.5508 144.183 11.1186 144.38 10.75C144.577 10.3749 144.85 10.0857 145.2 9.88232C145.556 9.67256 145.966 9.56768 146.43 9.56768C146.887 9.56768 147.281 9.67256 147.612 9.88232C147.949 10.0857 148.206 10.3559 148.384 10.6927C148.562 11.0296 148.651 11.3919 148.651 11.7797C148.651 11.8496 148.648 11.9195 148.642 11.9894C148.642 12.0593 148.642 12.1388 148.642 12.2278H144.876C144.895 12.5901 144.977 12.892 145.124 13.1336C145.276 13.3687 145.464 13.5467 145.686 13.6675C145.915 13.7883 146.156 13.8486 146.411 13.8486C146.741 13.8486 147.018 13.7724 147.24 13.6198C147.463 13.4673 147.625 13.2607 147.726 13.0001H148.518C148.391 13.4387 148.146 13.8041 147.784 14.0965C147.428 14.3826 146.97 14.5256 146.411 14.5256ZM146.411 10.2446C146.029 10.2446 145.689 10.3622 145.39 10.5974C145.098 10.8262 144.93 11.1631 144.885 11.608H147.86C147.841 11.1822 147.695 10.8485 147.421 10.6069C147.148 10.3654 146.811 10.2446 146.411 10.2446Z" fill="#021B51"/>
<path d="M149.713 14.4112V9.6821H150.437L150.485 10.5307C150.638 10.2319 150.857 9.99673 151.143 9.82511C151.429 9.65349 151.753 9.56768 152.115 9.56768C152.675 9.56768 153.12 9.7393 153.45 10.0825C153.787 10.4194 153.956 10.9406 153.956 11.6462V14.4112H153.155V11.732C153.155 10.7468 152.748 10.2542 151.934 10.2542C151.527 10.2542 151.187 10.4035 150.914 10.7023C150.647 10.9947 150.514 11.4142 150.514 11.9608V14.4112H149.713Z" fill="#021B51"/>
<path d="M156.981 14.5256C156.415 14.5256 155.944 14.3826 155.569 14.0965C155.194 13.8105 154.975 13.4228 154.912 12.9333H155.732C155.782 13.1812 155.913 13.3973 156.122 13.5817C156.339 13.7596 156.628 13.8486 156.99 13.8486C157.327 13.8486 157.575 13.7787 157.734 13.6389C157.893 13.4927 157.972 13.3211 157.972 13.124C157.972 12.838 157.867 12.6473 157.657 12.552C157.454 12.4566 157.165 12.3708 156.79 12.2945C156.536 12.2437 156.281 12.1706 156.027 12.0752C155.773 11.9799 155.56 11.8464 155.388 11.6748C155.217 11.4968 155.131 11.2648 155.131 10.9788C155.131 10.5656 155.283 10.2287 155.589 9.96813C155.9 9.70117 156.319 9.56768 156.847 9.56768C157.349 9.56768 157.759 9.69481 158.077 9.94906C158.401 10.197 158.589 10.5529 158.64 11.0169H157.848C157.816 10.7754 157.712 10.5879 157.534 10.4544C157.362 10.3145 157.13 10.2446 156.838 10.2446C156.551 10.2446 156.329 10.305 156.17 10.4258C156.018 10.5466 155.941 10.7055 155.941 10.9025C155.941 11.0932 156.04 11.2426 156.237 11.3506C156.44 11.4587 156.714 11.5508 157.057 11.6271C157.349 11.6907 157.626 11.7701 157.886 11.8655C158.153 11.9545 158.369 12.0911 158.535 12.2755C158.706 12.4534 158.792 12.714 158.792 13.0573C158.798 13.4832 158.636 13.8359 158.306 14.1156C157.982 14.3889 157.54 14.5256 156.981 14.5256Z" fill="#021B51"/>
<path d="M162.062 14.5256C161.611 14.5256 161.211 14.4239 160.861 14.2205C160.511 14.0107 160.235 13.7215 160.032 13.3528C159.834 12.9842 159.736 12.5488 159.736 12.0466C159.736 11.5508 159.834 11.1186 160.032 10.75C160.229 10.3749 160.502 10.0857 160.852 9.88232C161.207 9.67256 161.617 9.56768 162.081 9.56768C162.539 9.56768 162.933 9.67256 163.264 9.88232C163.601 10.0857 163.858 10.3559 164.036 10.6927C164.214 11.0296 164.303 11.3919 164.303 11.7797C164.303 11.8496 164.3 11.9195 164.293 11.9894C164.293 12.0593 164.293 12.1388 164.293 12.2278H160.527C160.546 12.5901 160.629 12.892 160.775 13.1336C160.928 13.3687 161.115 13.5467 161.338 13.6675C161.567 13.7883 161.808 13.8486 162.062 13.8486C162.393 13.8486 162.669 13.7724 162.892 13.6198C163.114 13.4673 163.276 13.2607 163.378 13.0001H164.169C164.042 13.4387 163.798 13.8041 163.435 14.0965C163.079 14.3826 162.622 14.5256 162.062 14.5256ZM162.062 10.2446C161.681 10.2446 161.341 10.3622 161.042 10.5974C160.75 10.8262 160.581 11.1631 160.537 11.608H163.512C163.493 11.1822 163.346 10.8485 163.073 10.6069C162.8 10.3654 162.463 10.2446 162.062 10.2446Z" fill="#021B51"/>
<path d="M169.756 12.9238C169.49 12.9238 169.245 12.8888 169.022 12.8189L168.546 13.267C168.616 13.3179 168.701 13.3624 168.803 13.4005C168.911 13.4323 169.064 13.4641 169.261 13.4959C169.458 13.5213 169.734 13.5499 170.09 13.5817C170.726 13.6262 171.18 13.7724 171.454 14.0203C171.727 14.2682 171.864 14.5923 171.864 14.9928C171.864 15.2661 171.787 15.5267 171.635 15.7746C171.489 16.0225 171.26 16.2259 170.948 16.3848C170.643 16.5437 170.249 16.6232 169.766 16.6232C169.34 16.6232 168.962 16.5659 168.631 16.4515C168.301 16.3435 168.043 16.175 167.859 15.9462C167.675 15.7237 167.583 15.4409 167.583 15.0976C167.583 14.9197 167.63 14.7258 167.726 14.516C167.821 14.3126 167.999 14.1188 168.26 13.9344C168.12 13.8772 167.999 13.8169 167.897 13.7533C167.802 13.6834 167.713 13.6071 167.63 13.5245V13.3052L168.441 12.5043C168.066 12.1865 167.878 11.767 167.878 11.2457C167.878 10.9343 167.951 10.6514 168.098 10.3972C168.244 10.1429 168.457 9.9427 168.736 9.79651C169.016 9.64396 169.356 9.56768 169.756 9.56768C170.03 9.56768 170.278 9.60582 170.5 9.6821H172.245V10.2828L171.358 10.3209C171.543 10.5879 171.635 10.8961 171.635 11.2457C171.635 11.5572 171.559 11.8401 171.406 12.0943C171.26 12.3486 171.047 12.552 170.767 12.7045C170.494 12.8507 170.157 12.9238 169.756 12.9238ZM169.756 12.2659C170.093 12.2659 170.36 12.1801 170.557 12.0085C170.761 11.8305 170.862 11.5763 170.862 11.2457C170.862 10.9216 170.761 10.6737 170.557 10.5021C170.36 10.3241 170.093 10.2351 169.756 10.2351C169.413 10.2351 169.14 10.3241 168.937 10.5021C168.739 10.6737 168.641 10.9216 168.641 11.2457C168.641 11.5763 168.739 11.8305 168.937 12.0085C169.14 12.1801 169.413 12.2659 169.756 12.2659ZM168.364 15.0214C168.364 15.3392 168.498 15.5744 168.765 15.7269C169.032 15.8858 169.366 15.9653 169.766 15.9653C170.16 15.9653 170.475 15.8795 170.71 15.7078C170.951 15.5362 171.072 15.3074 171.072 15.0214C171.072 14.818 170.99 14.64 170.824 14.4874C170.659 14.3412 170.354 14.2554 169.909 14.23C169.559 14.2046 169.258 14.1728 169.003 14.1347C168.743 14.2745 168.571 14.4239 168.488 14.5828C168.406 14.7481 168.364 14.8942 168.364 15.0214Z" fill="#021B51"/>
<path d="M173.148 14.4112V9.6821H173.873L173.94 10.5879C174.086 10.2764 174.308 10.0285 174.607 9.84418C174.906 9.65985 175.275 9.56768 175.713 9.56768V10.4067H175.494C175.214 10.4067 174.957 10.4576 174.722 10.5593C174.486 10.6546 174.299 10.8199 174.159 11.0551C174.019 11.2902 173.949 11.6144 173.949 12.0276V14.4112H173.148Z" fill="#021B51"/>
<path d="M178.185 14.5256C177.791 14.5256 177.464 14.4588 177.203 14.3254C176.943 14.1919 176.749 14.0139 176.622 13.7914C176.495 13.569 176.431 13.3274 176.431 13.0668C176.431 12.5837 176.615 12.2119 176.984 11.9513C177.353 11.6907 177.855 11.5604 178.49 11.5604H179.768V11.5032C179.768 11.09 179.66 10.7786 179.444 10.5688C179.228 10.3527 178.939 10.2446 178.576 10.2446C178.265 10.2446 177.995 10.3241 177.766 10.483C177.543 10.6355 177.403 10.8612 177.346 11.1599H176.526C176.558 10.8167 176.673 10.5275 176.87 10.2923C177.073 10.0571 177.324 9.87914 177.623 9.75837C177.922 9.63125 178.239 9.56768 178.576 9.56768C179.237 9.56768 179.733 9.74566 180.064 10.1016C180.4 10.4512 180.569 10.9184 180.569 11.5032V14.4112H179.854L179.806 13.5626C179.673 13.8296 179.476 14.0584 179.215 14.2491C178.961 14.4334 178.618 14.5256 178.185 14.5256ZM178.309 13.8486C178.614 13.8486 178.875 13.7692 179.091 13.6103C179.314 13.4514 179.482 13.2448 179.596 12.9905C179.711 12.7363 179.768 12.4693 179.768 12.1896V12.1801H178.557C178.087 12.1801 177.753 12.2627 177.556 12.428C177.365 12.5869 177.27 12.7871 177.27 13.0287C177.27 13.2766 177.359 13.4768 177.537 13.6293C177.721 13.7755 177.979 13.8486 178.309 13.8486Z" fill="#021B51"/>
<path d="M181.77 14.4112V9.6821H182.495L182.543 10.5307C182.695 10.2319 182.915 9.99673 183.201 9.82511C183.487 9.65349 183.811 9.56768 184.173 9.56768C184.732 9.56768 185.177 9.7393 185.508 10.0825C185.845 10.4194 186.013 10.9406 186.013 11.6462V14.4112H185.212V11.732C185.212 10.7468 184.806 10.2542 183.992 10.2542C183.585 10.2542 183.245 10.4035 182.972 10.7023C182.705 10.9947 182.571 11.4142 182.571 11.9608V14.4112H181.77Z" fill="#021B51"/>
<path d="M189.372 14.5256C188.901 14.5256 188.488 14.4175 188.132 14.2014C187.783 13.9853 187.509 13.6897 187.312 13.3147C187.122 12.9397 187.026 12.5138 187.026 12.0371C187.026 11.5604 187.125 11.1377 187.322 10.769C187.519 10.394 187.792 10.1016 188.142 9.89185C188.492 9.67574 188.905 9.56768 189.381 9.56768C189.769 9.56768 190.112 9.64714 190.411 9.80604C190.71 9.96495 190.942 10.1874 191.107 10.4735V7.54639H191.908V14.4112H191.183L191.107 13.6293C190.955 13.8582 190.735 14.0648 190.449 14.2491C190.163 14.4334 189.804 14.5256 189.372 14.5256ZM189.458 13.8296C189.775 13.8296 190.055 13.7565 190.297 13.6103C190.545 13.4577 190.735 13.248 190.869 12.981C191.009 12.714 191.079 12.4026 191.079 12.0466C191.079 11.6907 191.009 11.3792 190.869 11.1123C190.735 10.8453 190.545 10.6387 190.297 10.4925C190.055 10.34 189.775 10.2637 189.458 10.2637C189.146 10.2637 188.867 10.34 188.619 10.4925C188.377 10.6387 188.186 10.8453 188.047 11.1123C187.913 11.3792 187.846 11.6907 187.846 12.0466C187.846 12.4026 187.913 12.714 188.047 12.981C188.186 13.248 188.377 13.4577 188.619 13.6103C188.867 13.7565 189.146 13.8296 189.458 13.8296Z" fill="#021B51"/>
<path d="M195.34 14.5256C194.888 14.5256 194.488 14.4239 194.138 14.2205C193.789 14.0107 193.512 13.7215 193.309 13.3528C193.112 12.9842 193.013 12.5488 193.013 12.0466C193.013 11.5508 193.112 11.1186 193.309 10.75C193.506 10.3749 193.779 10.0857 194.129 9.88232C194.485 9.67256 194.895 9.56768 195.359 9.56768C195.816 9.56768 196.211 9.67256 196.541 9.88232C196.878 10.0857 197.135 10.3559 197.313 10.6927C197.491 11.0296 197.58 11.3919 197.58 11.7797C197.58 11.8496 197.577 11.9195 197.571 11.9894C197.571 12.0593 197.571 12.1388 197.571 12.2278H193.805C193.824 12.5901 193.906 12.892 194.053 13.1336C194.205 13.3687 194.393 13.5467 194.615 13.6675C194.844 13.7883 195.085 13.8486 195.34 13.8486C195.67 13.8486 195.947 13.7724 196.169 13.6198C196.392 13.4673 196.554 13.2607 196.655 13.0001H197.447C197.32 13.4387 197.075 13.8041 196.713 14.0965C196.357 14.3826 195.899 14.5256 195.34 14.5256ZM195.34 10.2446C194.958 10.2446 194.618 10.3622 194.32 10.5974C194.027 10.8262 193.859 11.1631 193.814 11.608H196.789C196.77 11.1822 196.624 10.8485 196.35 10.6069C196.077 10.3654 195.74 10.2446 195.34 10.2446Z" fill="#021B51"/>
<path d="M198.918 14.4588C198.759 14.4588 198.626 14.408 198.518 14.3063C198.416 14.1982 198.365 14.0679 198.365 13.9154C198.365 13.7628 198.416 13.6357 198.518 13.534C198.626 13.4259 198.759 13.3719 198.918 13.3719C199.071 13.3719 199.198 13.4259 199.3 13.534C199.408 13.6357 199.462 13.7628 199.462 13.9154C199.462 14.0679 199.408 14.1982 199.3 14.3063C199.198 14.408 199.071 14.4588 198.918 14.4588Z" fill="#021B51"/>
</svg>
